<svg xmlns="http://www.w3.org/2000/svg" width="146.638" height="32.932" viewBox="0 0 146.638 32.932"><g transform="translate(85.341 11.226)"><g transform="translate(0)"><path d="M1131.762-88.636a5.6,5.6,0,0,1-4.283-1.563,6.23,6.23,0,0,1-1.472-4.441,6.836,6.836,0,0,1,.449-2.553,5.5,5.5,0,0,1,1.231-1.9,5.143,5.143,0,0,1,1.863-1.173,6.724,6.724,0,0,1,2.345-.4,7.5,7.5,0,0,1,1.331.108,8.663,8.663,0,0,1,1.048.249,5.193,5.193,0,0,1,.748.291c.2.1.344.177.432.233l-.749,2.1a6.292,6.292,0,0,0-1.239-.482,5.916,5.916,0,0,0-1.605-.2,3.55,3.55,0,0,0-1.173.2,2.656,2.656,0,0,0-1.014.64,3.2,3.2,0,0,0-.707,1.139,4.771,4.771,0,0,0-.266,1.7,6.052,6.052,0,0,0,.175,1.489,3.159,3.159,0,0,0,.565,1.19,2.713,2.713,0,0,0,1.024.79,3.634,3.634,0,0,0,1.53.291A6.977,6.977,0,0,0,1133.01-91a7.365,7.365,0,0,0,.8-.158,4.173,4.173,0,0,0,.615-.208q.266-.116.482-.216l.715,2.079a6.057,6.057,0,0,1-1.547.6A9.023,9.023,0,0,1,1131.762-88.636Z" transform="translate(-1126.007 100.662)"/><path d="M1170.921-90.811v2.229h-7.7v-11.527h2.6v9.3Z" transform="translate(-1145.287 100.375)"/><path d="M1200.446-88.349a5.816,5.816,0,0,1-2.1-.341,3.89,3.89,0,0,1-1.455-.948,3.782,3.782,0,0,1-.849-1.447,5.963,5.963,0,0,1-.275-1.855v-7.169h2.6v6.953a3.9,3.9,0,0,0,.158,1.189,2.2,2.2,0,0,0,.432.8,1.547,1.547,0,0,0,.665.441,2.633,2.633,0,0,0,.857.133,2.1,2.1,0,0,0,1.539-.582,2.717,2.717,0,0,0,.59-1.98v-6.953h2.595v7.169a5.859,5.859,0,0,1-.282,1.863,3.826,3.826,0,0,1-.865,1.456,3.886,3.886,0,0,1-1.48.939A6.127,6.127,0,0,1,1200.446-88.349Z" transform="translate(-1162.154 100.375)"/><path d="M1238.172-88.576q-.948,0-1.888-.058a13.389,13.389,0,0,1-1.955-.275v-11.178a16.658,16.658,0,0,1,1.746-.225q.948-.074,1.764-.075a12,12,0,0,1,2.021.158,4.8,4.8,0,0,1,1.589.541,2.839,2.839,0,0,1,1.039,1.006,2.942,2.942,0,0,1,.375,1.539,2.441,2.441,0,0,1-1.331,2.179,2.727,2.727,0,0,1,1.5,1.131,3.252,3.252,0,0,1,.4,1.613,3.1,3.1,0,0,1-1.322,2.728A6.93,6.93,0,0,1,1238.172-88.576Zm-1.314-7.152h1.264a3.522,3.522,0,0,0,1.714-.308,1.065,1.065,0,0,0,.516-.989,1.018,1.018,0,0,0-.532-.982,3.426,3.426,0,0,0-1.564-.282q-.333,0-.715.008t-.682.041Zm0,1.98v2.977q.283.034.615.051t.732.016a4.5,4.5,0,0,0,1.88-.332,1.235,1.235,0,0,0,.715-1.231,1.207,1.207,0,0,0-.6-1.14,3.511,3.511,0,0,0-1.713-.341Z" transform="translate(-1182.132 100.519)"/></g></g><path d="M995.719-105.5v-8.02h6.979c2.639,0,4.869,1.763,4.869,3.85v13.951l7.228,6.359v-20.31c0-6.108-5.426-11.078-12.1-11.078H988.491v8.889Z" transform="translate(-969.414 122.297)"/><path d="M967.979-110.315v11.062H961c-2.64,0-4.869-1.763-4.869-3.85v-14.5l-7.228-6.359V-103.1c0,6.109,5.427,11.078,12.1,11.078h14.207v-11.931Z" transform="translate(-948.903 123.958)"/><g transform="translate(48.91 1.545)"><path d="M1066.572-97.592H1062.5c-2.639,0-4.869-1.763-4.869-3.85v-12.082h6.979a5.386,5.386,0,0,1,3.913,1.6l8.184,7.2v-4.949c0-6.108-5.426-11.078-12.1-11.078H1050.4v19.31c0,6.109,5.426,11.078,12.1,11.078h12.288Z" transform="translate(-1050.403 120.752)"/></g><path d="M1089.99-94.033v9.627l10.035,8.829V-85.2Z" transform="translate(-1022.005 108.453)"/></svg>