<svg xmlns="http://www.w3.org/2000/svg" width="21.23" height="18.975" viewBox="0 0 21.23 18.975"><path d="M1547.823,310.995h-19.735a.747.747,0,0,1,0-1.495h19.735a.747.747,0,0,1,0,1.495Z" transform="translate(-1527.34 -292.02)"/><path d="M1546.658,307.111h-16.216a.747.747,0,0,1,0-1.495h16.216a.747.747,0,0,1,0,1.495Z" transform="translate(-1527.935 -291.039)"/><path d="M1532.927,302.17a.747.747,0,0,1-.747-.747v-4.315a.747.747,0,1,1,1.495,0v4.315A.747.747,0,0,1,1532.927,302.17Z" transform="translate(-1528.562 -288.701)"/><path d="M1538.5,302.17a.747.747,0,0,1-.747-.747v-4.315a.747.747,0,1,1,1.495,0v4.315A.747.747,0,0,1,1538.5,302.17Z" transform="translate(-1529.97 -288.701)"/><path d="M1544.076,302.17a.747.747,0,0,1-.747-.747v-4.315a.747.747,0,1,1,1.495,0v4.315A.747.747,0,0,1,1544.076,302.17Z" transform="translate(-1531.378 -288.701)"/><path d="M1549.651,302.17a.747.747,0,0,1-.747-.747v-4.315a.747.747,0,0,1,1.495,0v4.315A.747.747,0,0,1,1549.651,302.17Z" transform="translate(-1532.786 -288.701)"/><path d="M1547.628,292.7h-19.155a.747.747,0,0,1-.351-1.407l9.577-5.1a.75.75,0,0,1,.7,0l9.577,5.1a.747.747,0,0,1-.35,1.407Zm-16.159-1.495h13.162l-6.581-3.5Z" transform="translate(-1527.438 -286.113)"/></svg>