<svg xmlns="http://www.w3.org/2000/svg" width="110.5" height="110.5" viewBox="0 0 110.5 110.5"><defs><style>.a{fill:#fff;}.b,.c{fill:none;stroke:#fff;stroke-miterlimit:10;}.b{opacity:0.4;}.c{stroke-width:0.5px;opacity:0.3;}</style></defs><g transform="translate(0.25 0.25)"><path class="a" d="M146.505,20.863a39.115,39.115,0,1,0,39.115,39.115A39.119,39.119,0,0,0,146.505,20.863Zm-1.723,56.788a13.376,13.376,0,0,1-13.9-12.736v-22.2h16.33a13.378,13.378,0,0,1,13.912,12.736v5.687l-9.411-8.271a6.182,6.182,0,0,0-4.5-1.843h-8.021V64.915a5.193,5.193,0,0,0,5.595,4.427h4.687l9.448,8.308Zm19.571,1.084L152.813,68.583V57.514l11.541,10.142Z" transform="translate(-91.506 -4.98)"/><circle class="b" cx="44.658" cy="44.658" r="44.658" transform="translate(10.342 10.342)"/><circle class="c" cx="55" cy="55" r="55"/></g></svg>