<svg xmlns="http://www.w3.org/2000/svg" xmlns:xlink="http://www.w3.org/1999/xlink" width="174.015" height="201.691" viewBox="0 0 174.015 201.691"><defs><style>.a{fill:url(#a);}</style><linearGradient id="a" x1="0.5" x2="0.5" y2="1" gradientUnits="objectBoundingBox"><stop offset="0" stop-color="aqua"/><stop offset="1" stop-color="#f0b"/></linearGradient></defs><path class="a" d="M6358.66-2866.064v188.941l14.483,12.75h159.532v-189.234l-14.159-12.457Z" transform="translate(-6358.66 2866.063)"/><path class="a" d="M-1.91-14.6a2.905,2.905,0,0,1-2.027-.8,2.712,2.712,0,0,1-.869-2.1v-4.633A25.121,25.121,0,0,1-1.693-32.19,44.872,44.872,0,0,1,4.243-40.3q3.4-3.692,6.8-7.021a53.916,53.916,0,0,0,5.791-6.587,14.34,14.34,0,0,0,2.823-6.732A9.929,9.929,0,0,0,18-67.731a13.246,13.246,0,0,0-5.646-4.415,18.731,18.731,0,0,0-7.456-1.52q-6.8,0-11.147,3.33t-5.936,10.713a4.477,4.477,0,0,1-1.448,2.533,4.337,4.337,0,0,1-2.751.8H-28.692a3.063,3.063,0,0,1-2.244-.941,3.423,3.423,0,0,1-.941-2.533A27.932,27.932,0,0,1-29.2-70.988a30.268,30.268,0,0,1,7.383-9.772,35.874,35.874,0,0,1,11.8-6.877A46.335,46.335,0,0,1,5.908-90.17a47.335,47.335,0,0,1,16.576,2.533A29.142,29.142,0,0,1,33.2-81.05a24.73,24.73,0,0,1,5.718,8.758A24.157,24.157,0,0,1,40.507-63.1a24.676,24.676,0,0,1-2.461,9.844,38.857,38.857,0,0,1-5.356,8.035q-3.185,3.692-6.515,7.238a64.786,64.786,0,0,0-5.863,7.166,20.95,20.95,0,0,0-3.4,7.673,25.329,25.329,0,0,0-.434,2.533q-.145,1.231-.29,2.389a7.336,7.336,0,0,1-1.448,2.678,3.182,3.182,0,0,1-2.461.941Zm-.434,27.216A3.351,3.351,0,0,1-4.805,11.6,3.351,3.351,0,0,1-5.819,9.141V-3.454A3.527,3.527,0,0,1-4.805-6.06,3.351,3.351,0,0,1-2.344-7.073H11.7A3.527,3.527,0,0,1,14.3-6.06a3.527,3.527,0,0,1,1.013,2.606V9.141A3.351,3.351,0,0,1,14.3,11.6,3.527,3.527,0,0,1,11.7,12.616Z" transform="translate(82.557 137.692)"/></svg>